<svg xmlns="http://www.w3.org/2000/svg" width="256" height="256" viewBox="0 0 256 256"><path d="M79.4 151.2a22.4 22.4 0 0 0-4.6.5c0 .1.1.3.4.6l1.2.6 1.6.6 1.7.5 1.5.3.8.2h1.3l1.6-.2 1.4-.6a2.7 2.7 0 0 0 1-.8 17.4 17.4 0 0 0-3.8-1.4 19 19 0 0 0-4.1-.3z"/><path d="M121 51a76.7 76.7 0 1 0 76.7 76.7A76.7 76.7 0 0 0 121 51zm50 42.3v.2a3.2 3.2 0 0 1-.1.8 5.9 5.9 0 0 1-.2 1.3 5.9 5.9 0 0 1-.2 1.3c0 .3-.1.6-.1.8l-.6 1.1c-.1.4-.2.7-.3 1.2a5.6 5.6 0 0 0-.4 1.2c-.1.4-.3.8-.4 1.1l-1 1.9a16.2 16.2 0 0 0-1 1.8l-12 16.7-.2.4h-.1c-.1.1-.2.1-.2.2l-.3.3c-.2.4-.6.8-1 1.4l-1.2 1.7a13.7 13.7 0 0 0-1.3 2 10 10 0 0 0-1.2 1.9 15 15 0 0 0-.9 1.8 4.4 4.4 0 0 0-.3 1.4c0 .2-.1.3-.1.5s.1.2.1.4l-.2.2c0 .2.1.2.2.3v6.1c0 .2-.1.4-.1.6l-.3.7a2.1 2.1 0 0 0-.3.7c-.1.3-.3.5-.3.7v1s.1.1 0 .3-.1.3-.3.4l-.4.5-.3.3v.2l.5.3.5.2v1.8a13 13 0 0 1-.4 2.1c-.1.8-.3 1.5-.4 2.2a15.5 15.5 0 0 0-.4 2.1 14.9 14.9 0 0 0-.2 2.1c0 1.3 0 2.5.1 3.8s.4 2.5.7 3.7a17.1 17.1 0 0 0 3.3 6.6 1.3 1.3 0 0 1-.7.5l-1 .4a2.3 2.3 0 0 1-1.1.3h-1.7l-.8-.2h-1l-.4-.2-.4-.3a.5.5 0 0 1-.2-.4 20.1 20.1 0 0 0 .1-2.5c-.1-.8-.1-1.7-.2-2.5l-.3-2.6a11.3 11.3 0 0 1-.3-2.5c-.1 0-.1-.2-.2-.3a1 1 0 0 0-.1-.4 17 17 0 0 1 .1-2.2 19.3 19.3 0 0 0-.1-2.4 15 15 0 0 0-.4-2.4 10.2 10.2 0 0 0-.8-2.1 2 2 0 0 0-.9 1.1c-.2.5-.3 1-.5 1.6s-.1 1.2-.2 1.8-.6 1-.6 1.4v4.5c0 1.7-.1 3.4-.1 5s.2 3.3.4 5l.2.2.5.4a1 1 0 0 1 .5.4l.2.3c0 .2-.2.3-.5.5l-1.1.5-1.2.6-.8.2h-.1l-2.9-1.6a.4.4 0 0 1-.1-.3v-.3a10.7 10.7 0 0 1 0-1.8 10.9 10.9 0 0 0 .1-1.8 16.4 16.4 0 0 0-.2-2.3 18.5 18.5 0 0 0-.4-2.3l-.3-2.2a19.4 19.4 0 0 1-.2-2.4c0-.7.1-1.4.1-2s.1-1.1.2-1.7l.3-1.7a9 9 0 0 0 .4-1.9c.1-.1.1-.2 0-.4s-.1-.3-.1-.5l-1.1.2-1.1.3-1.2.4-1.1.3h-11.6a2.8 2.8 0 0 0-1.5.6 16.1 16.1 0 0 1 0 3.1c0 1 0 2-.1 3.1s-.1 2-.1 3-.1 2.1-.1 3.2v2.7c0 .3.4.6.7 1a3.9 3.9 0 0 1 .8 1 6.1 6.1 0 0 1 .7 1 1.9 1.9 0 0 1 .4 1.1v.2h-.1a6.3 6.3 0 0 1-2.4.2c0 .3 0 .4-.1.5h-3a2.8 2.8 0 0 1-1.1-.5 1.2 1.2 0 0 1-.5-1.1 2.2 2.2 0 0 1 .1-.8 2.4 2.4 0 0 1 .2-.8 2.4 2.4 0 0 1 .2-.8v-.8a16.9 16.9 0 0 0-.1-2.3c-.1-.8-.3-1.5-.4-2.2a18.9 18.9 0 0 1-.5-2.3 13.3 13.3 0 0 1-.4-2.4h-.3c-.1 0-.2.5-.3.6l-.3.4c0 .1-.1.2-.1.3l-1 1.4-.9 1.3-.6 1.5a4.1 4.1 0 0 0-.3 1.6 3.6 3.6 0 0 0 .2 1l.5.9a4.3 4.3 0 0 0 .4.7l.2.4a.8.8 0 0 1-.2.4l-.7.3h-3.4l-.6-.2a1 1 0 0 1-.4-.5 3 3 0 0 1-.4-1l-.3-1a3 3 0 0 1-.2-1 1.6 1.6 0 0 1 .3-.9l.6-.9.6-1a4.1 4.1 0 0 0 .5-.9l1.5-3.5 1.5-3.6a.5.5 0 0 1 .2-.4l.4-.5.2-.4a.9.9 0 0 0 .1-.5c0-.2 0-.4-.2-.4h-.7l-5.5 1.5-.7.3-1.1.2-1 .4a.7.7 0 0 0-.4.6 1.4 1.4 0 0 0 .2.6l.4.4.5.3c.1.1.3.2.4.4l-.2.2-.8-.5-.8-.5-1-.4h-.9a8.3 8.3 0 0 0-2.2.3l-2.4.7-2.5.7a10.9 10.9 0 0 1-2.6.3l-2-.3-3-.6-3.3-1.1a20.8 20.8 0 0 1-3-1.3 9.8 9.8 0 0 1-2.2-1.7 2.3 2.3 0 0 1-.9-1.8 2.7 2.7 0 0 1 .7-1.9 3.7 3.7 0 0 1 1.7-1 7 7 0 0 1 2.1-.1l2 .2h2.4a2.1 2.1 0 0 1 .8-.2h1.4l1.5.2 1.2.2 1.2.3 1.1.5 1.1.5 1.2.2a4.9 4.9 0 0 0 2.4-.7l2.5-1.5a21.1 21.1 0 0 0 2.3-1.9l2-1.6 1.1-.8 1.1-.6 1.1-.8.9-1a18.2 18.2 0 0 0 1.5-2.7 17.8 17.8 0 0 1 1.7-2.7l.8-.8.9-.6a3.1 3.1 0 0 1 1-.5l1-.6 2.1-1.6 2.1-1.7 2-1.8 2.1-1.8a17.1 17.1 0 0 1 2.3-1.3l2.4-1.1 1.5-.8 1.5-.8 1.5-.7 1.6-.4 13.5-2a5.8 5.8 0 0 0 2.1-.7 12 12 0 0 0 2.1-1.3l1.9-1.7c.6-.7 1.2-1.3 1.7-2l1.6-1.9 1.5-1.7 4.6-5.4.2-.2.3-.3.3-.3.2-.2 1.2-2h.4l.2-.2h.2l.2-.2c.1-.1.2-.2.2-.3l.8-1 .8-1.2.8-1.2.6-1a6.1 6.1 0 0 0 .5-1.2 6.5 6.5 0 0 0 .4-1.3c.2-.4.3-.9.5-1.3s.6-.9.6-1.3v-3.9a2.8 2.8 0 0 0-.7-1.9 7.5 7.5 0 0 0-1.5-1.6l-2.1-1.1a7.2 7.2 0 0 0-1.9-.4 19.7 19.7 0 0 0-3.5.4 7.7 7.7 0 0 0-3.1 1.6 3.8 3.8 0 0 0-.9.9l-.9 1.1-1.1 1.2-1.1 1.1a5.9 5.9 0 0 1-1.1.8 2.3 2.3 0 0 1-1.1.3.9.9 0 0 1-.7-.3.7.7 0 0 1-.3-.6V90a.6.6 0 0 1 .1-.4.7.7 0 0 1 .1-.5v-.3a3 3 0 0 0-.2-1l-.3-.8-.4-.7a2.2 2.2 0 0 1-.1-.8c.2 0 .4 0 .5-.2l.3-.3c0-.2.1-.3.2-.5a.9.9 0 0 1 .5-.3c0-.1.1-.1.3-.1h1.4a.8.8 0 0 0 .6-.2.8.8 0 0 1 .4-.4h.2c.1 0 .1.1.2.2s.1.2.1.3a.2.2 0 0 1 .2-.2l.4-.3.7-.4.8-.4.8-.5.7-.4.3-.3 1.3-.7 1.1-.4h5a1.6 1.6 0 0 0 .9.3l.9.2 1 .2.9.3a10.6 10.6 0 0 1 2.7 1.8 10 10 0 0 1 2 2.6 9.6 9.6 0 0 1 1 3 12.3 12.3 0 0 1 .3 3.3v1.4z"/></svg>