<svg xmlns="http://www.w3.org/2000/svg" width="256" height="256" viewBox="0 0 256 256"><path d="M131.1 141.6c-.2 0-.3.1-.3.4a.3.3 0 1 0 0 .6c.1 0 .2-.1.2-.3h.1a.3.3 0 0 0 .3-.3c0-.3-.1-.4-.3-.4zm.9-.5c-.3.2-.5.3-.6.5h.2l.7-.2.5-.4h-.8zm1.8-1.5a.3.3 0 0 0-.3.3c-.2 0-.3.1-.3.4h-.1a.3.3 0 0 0-.3.3c0 .2.1.4.3.4s.3-.2.3-.4h.1c.2 0 .2-.1.2-.3h.1c.2 0 .3-.2.3-.4a.3.3 0 0 0-.3-.3zm14-3.6l-.8.9c.2.3.3.5.5.6h.7a1.1 1.1 0 0 0 .8-.3 2.3 2.3 0 0 0 .7-.7l.5-.9c.1-.3.2-.7.3-.7h-2.1c-.1.1-.3.8-.6 1.1z"/><path d="M128.3 51a76.7 76.7 0 1 0 76.7 76.7A76.6 76.6 0 0 0 128.3 51zm57.5 45.5l-.9.2h-2.2a18.6 18.6 0 0 0-3.2.8 6.7 6.7 0 0 0-3.7 2.2 7.7 7.7 0 0 0-1 1.8 13.3 13.3 0 0 0-1 2.4c-.2.8-.6 1.8-1 3a17.2 17.2 0 0 1-.7 2.1l-.7 1.9-.9 1.9-1.1 1.9a21.3 21.3 0 0 1-1.6 2.5 17.4 17.4 0 0 1-1.8 2.2l-1.8 2.1a22.3 22.3 0 0 0-1.9 2.4 4.8 4.8 0 0 0-.8 1.6l-.6 1.5a5.7 5.7 0 0 1-.8 1.3 3.3 3.3 0 0 1-1.5 1l-.8.3-1.3.4-1.2.4-.8.3a1.7 1.7 0 0 1 .1 1.2 1.2 1.2 0 0 1-.5.5l-.8.4a1 1 0 0 0-.5.6l-1.3 4a3.6 3.6 0 0 1-.7 1l-1 .5h-3.6a.6.6 0 0 1-.2-.5v-.2l.2-.2h.1a.4.4 0 0 0 .1-.3l-2.1 1-2 1.3a13.7 13.7 0 0 0-2 1.3l-2.1 1.2-.5.2-.7.4-.6.5c-.2.1-.2.4-.2.6v.2l1.1 1 1.1 1.1 1.3.9 1.2.8 1.1.4 1.2.3 1.1.4a2.1 2.1 0 0 1 1 .6 3.4 3.4 0 0 1 .9.8l.6.9.7.9a3.6 3.6 0 0 0 .9.8l1 .3 1.3.4 1 .6a1.4 1.4 0 0 1 .5 1v.4l-3.4.6-.6.3H147l-.7-.4-1-.6-1-.6-.6-.4-.2-.2-.2-.3-.2-.3v-.3l-1.4-2.7-.7-.3-1.1-.4-1.3-.6-1.2-.6-1.1-.4-.7-.4-1.7-1a9.1 9.1 0 0 1-1.6-1.3 11.1 11.1 0 0 1-1.2-1.6 6 6 0 0 1-.6-1.9l-.3.2-.4.2-.5.4-1 .7-1.3.8-1.3.9-1.1.6-.5.3-3.6 2.1a15.7 15.7 0 0 0-2.8 2.1 11.8 11.8 0 0 0-2.2 2.7c-.5 1-.4 2.4-1.4 4v.8a6.2 6.2 0 0 0 .7 2.7 4.2 4.2 0 0 0 1.3 1.6l1.6.8 1.5.6a1.9 1.9 0 0 1 1.7 1.8h-8l-.2-.2c0-.1-.1-.1-.2-.2h-.6a1.9 1.9 0 0 1-.8-1 5 5 0 0 1-.3-1.3c0-.4.1-.9.1-1.4a7.4 7.4 0 0 0 .2-1.2v-.9a2.8 2.8 0 0 1 .2-1.1l.3-1.6c.2-.6.3-1.2.5-1.9s.3-1.3.5-1.9a7.5 7.5 0 0 1 .4-1.6 6.5 6.5 0 0 0 .2-1.1c.1-.4.3-.8.4-1.2l.6-1.1a7.2 7.2 0 0 0 2.7-1.6 12.6 12.6 0 0 0 2-2 16.3 16.3 0 0 0 1.7-2 12.9 12.9 0 0 1 2.1-1.9l.9-.4 1.2-.5 1.4-.6 1.3-.6 1-.9a1.2 1.2 0 0 0 .3-.9v-.8a.9.9 0 0 0-.4-.7l-.4-.2-.7-.3-.7-.4-.5-.2a4 4 0 0 1-1.2-.7l-1.6-1.1-1.6-1a1.6 1.6 0 0 0-1-.3h-4.8c-3.6 0-7.1-.1-10.6.1H94.5l-7.7-.2q-3.9-.3-7.5-.9a59.5 59.5 0 0 1-7.3-1.7 47.9 47.9 0 0 1-7.1-3.1l-.8-.4-1-.6-.8-.8a1.6 1.6 0 0 1-.3-.9 3.2 3.2 0 0 1 1.3.2l1.4.6 1.3.5 1 .4a18.3 18.3 0 0 0 2.8 1l3 .9c1 .3 2.1.4 3.1.6l2.9.2h16l1.6-.2 2-.3 2.2-.4 2.1-.3 1.6-.4 4.1-.8 4.5-1c1.5-.3 2.9-.8 4.4-1.2a35.2 35.2 0 0 0 3.9-1.7l2.4-1.1 2.2-1 2.4-.8 2.6-.5h2.7l.7-.2 1.1-.2 2-.4 2.5-.5 2.4-.6 2-.7a5.3 5.3 0 0 0 1.1-.4h4c1.6 0 3.2.3 4.8.4a35.9 35.9 0 0 0 4.7.3 6 6 0 0 0 3-.7 13.7 13.7 0 0 0 2.8-2.1 23.7 23.7 0 0 0 2.3-3l2-3.4a32.3 32.3 0 0 0 1.5-3.4c.5-1.1.8-2.1 1.1-2.9a17.2 17.2 0 0 0 .7-2.1l.6-1.9a7.7 7.7 0 0 1 .7-1.6 6 6 0 0 1 1.1-1.2 4.8 4.8 0 0 1 1.6-.9 6.5 6.5 0 0 1 2.2-.5h1.9c.5 1 1 .5 1.8.8a18.9 18.9 0 0 1 2.1.9 7.8 7.8 0 0 1 1.8 1.1 1.9 1.9 0 0 1 .8 1.3 1.2 1.2 0 0 1-.3.9 1.8 1.8 0 0 1-.7.2z"/></svg>